<?xml version="1.0" encoding="UTF-8" standalone="no"?>
<svg
   width="410"
   height="170"
   viewBox="0 0 409.99999 170"
   version="1.1"
   id="svg25"
   sodipodi:docname="logo-rptu-himmel.svg"
   inkscape:version="1.2.1 (9c6d41e410, 2022-07-14)"
   xmlns:inkscape="http://www.inkscape.org/namespaces/inkscape"
   xmlns:sodipodi="http://sodipodi.sourceforge.net/DTD/sodipodi-0.dtd"
   xmlns="http://www.w3.org/2000/svg"
   xmlns:svg="http://www.w3.org/2000/svg">
  <sodipodi:namedview
     id="namedview27"
     pagecolor="#ffffff"
     bordercolor="#999999"
     borderopacity="1"
     inkscape:showpageshadow="0"
     inkscape:pageopacity="0"
     inkscape:pagecheckerboard="0"
     inkscape:deskcolor="#d1d1d1"
     showgrid="false"
     inkscape:zoom="1.4883111"
     inkscape:cx="175.36656"
     inkscape:cy="118.92675"
     inkscape:window-width="1920"
     inkscape:window-height="1001"
     inkscape:window-x="-8"
     inkscape:window-y="-8"
     inkscape:window-maximized="1"
     inkscape:current-layer="svg25" />
  <defs
     id="defs4">
    <clipPath
       id="clip-path">
      <path
         id="Pfad_7"
         data-name="Pfad 7"
         d="M 0,98.973 H 399.738 V -59.6 H 0 Z"
         transform="translate(0,59.596)"
         fill="none" />
    </clipPath>
  </defs>
  <g
     id="Gruppe_10"
     data-name="Gruppe 10"
     clip-path="url(#clip-path)"
     transform="translate(5.1309967,5.7154999)"
     style="fill:#000000">
    <g
       id="Gruppe_7"
       data-name="Gruppe 7"
       transform="translate(0.001,0.002)"
       style="fill:#000000">
      <path
         id="Pfad_4"
         data-name="Pfad 4"
         d="M 16.767,6.364 A 5.745,5.745 0 0 0 12.528,4.674 H -0.738 v 11.641 h 13.266 a 5.823,5.823 0 0 0 4.239,-1.642 5.427,5.427 0 0 0 1.687,-4.039 5.8,5.8 0 0 0 -1.687,-4.27 M -10.1,-3.832 h 22.932 a 14.607,14.607 0 0 1 10.712,4.191 13.9,13.9 0 0 1 4.239,10.276 14.657,14.657 0 0 1 -0.82,4.944 13.221,13.221 0 0 1 -1.929,3.721 18.115,18.115 0 0 1 -2.267,2.427 8.537,8.537 0 0 1 -1.974,1.384 L 20,23.534 l 9.326,16.68 h -9.96 L 10.977,24.795 H -0.738 V 40.214 H -10.1 Z"
         transform="translate(10.096,3.832)"
         fill="#479ac3"
         style="fill:#000000" />
    </g>
    <g
       id="Gruppe_8"
       data-name="Gruppe 8"
       transform="translate(44.529,114.122)"
       style="fill:#000000">
      <path
         id="Pfad_5"
         data-name="Pfad 5"
         d="M 5.841,5.311 V 17.872 H 20.049 A 6.439,6.439 0 0 0 24.713,16.06 5.963,5.963 0 0 0 26.581,11.606 6,6 0 0 0 24.713,7.139 6.4,6.4 0 0 0 20.049,5.311 Z M 20.352,-3.2 A 15.416,15.416 0 0 1 31.488,1.057 14.029,14.029 0 0 1 35.91,11.59 14.059,14.059 0 0 1 31.5,22.127 15.4,15.4 0 0 1 20.349,26.382 H 5.841 V 40.848 H -3.517 V -3.2 Z"
         transform="translate(3.517,3.198)"
         fill="#479ac3"
         style="fill:#000000" />
    </g>
    <g
       id="Gruppe_9"
       data-name="Gruppe 9"
       transform="translate(130.106,57.262)"
       style="fill:#000000">
      <path
         id="Pfad_6"
         data-name="Pfad 6"
         d="M 24.609,16.242 V -9.78 h -9.3 v 26.022 a 10.306,10.306 0 0 1 -2.818,7.378 9.268,9.268 0 0 1 -2.977,2.137 4.374,4.374 0 0 0 1.373,8.509 4.238,4.238 0 0 0 1.062,-0.138 4.041,4.041 0 0 0 0.663,-0.223 17.765,17.765 0 0 0 6.6,-4.239 18.242,18.242 0 0 0 5.391,-13.423 M 3.219,29.9 A 4.365,4.365 0 0 0 0.758,25.959 4.357,4.357 0 0 0 0.271,25.759 9.326,9.326 0 0 1 -2.706,23.62 10.315,10.315 0 0 1 -5.521,16.242 V -9.78 h -9.3 v 26.022 a 18.25,18.25 0 0 0 5.391,13.423 17.775,17.775 0 0 0 6.607,4.235 3.958,3.958 0 0 0 0.663,0.223 4.2,4.2 0 0 0 1.059,0.138 4.345,4.345 0 0 0 4.32,-4.361"
         transform="translate(14.818,9.78)"
         fill="#479ac3"
         style="fill:#000000" />
    </g>
  </g>
  <g
     id="Gruppe_11"
     data-name="Gruppe 11"
     transform="translate(90.709997,62.9775)"
     style="fill:#000000">
    <path
       id="Pfad_8"
       data-name="Pfad 8"
       d="M 24.609,0 V 8.509 H 9.573 V 44.046 H 0.247 V 8.509 H -14.818 V 0 Z"
       transform="translate(14.818)"
       fill="#479ac3"
       style="fill:#000000" />
  </g>
  <g
     id="Gruppe_16"
     data-name="Gruppe 16"
     clip-path="url(#clip-path)"
     transform="translate(5.1309967,5.7154999)"
     style="fill:#000000">
    <g
       id="Gruppe_12"
       data-name="Gruppe 12"
       transform="translate(182.837,142.965)"
       style="fill:#000000">
      <path
         id="Pfad_9"
         data-name="Pfad 9"
         d="M 6.349,9.6 V 8.5 H -2.618 V -4.989 H -3.823 V 9.6 Z m 12.189,0 V -0.639 h -0.987 l -0.021,2.11 h -0.043 a 4.8,4.8 0 0 0 -4.409,-2.331 5.1,5.1 0 0 0 -5.239,5.343 5.1,5.1 0 0 0 5.239,5.34 4.8,4.8 0 0 0 4.409,-2.331 h 0.043 l 0.021,2.11 z M 13.211,8.81 A 4.115,4.115 0 0 1 8.98,4.483 4.116,4.116 0 0 1 13.211,0.151 4.128,4.128 0 0 1 17.487,4.483 4.127,4.127 0 0 1 13.211,8.812 M 26.693,-0.86 a 4.188,4.188 0 0 0 -4.012,2.331 h -0.043 l -0.021,-2.11 H 21.651 V 9.6 h 1.118 V 4.393 C 22.768,1.78 24.195,0.151 26.5,0.151 c 2.171,0 3.443,1.386 3.443,3.693 V 9.6 h 1.118 V 3.735 c 0,-2.836 -1.666,-4.6 -4.364,-4.6 M 43.881,9.6 V -5.782 h -1.117 v 7.1 h -0.045 a 4.8,4.8 0 0 0 -4.3,-2.176 5.1,5.1 0 0 0 -5.239,5.343 5.1,5.1 0 0 0 5.239,5.34 4.8,4.8 0 0 0 4.406,-2.331 h 0.045 l 0.021,2.11 z M 38.554,8.81 a 4.117,4.117 0 0 1 -4.233,-4.329 4.254,4.254 0 1 1 8.506,0 4.125,4.125 0 0 1 -4.273,4.329 M 56.99,9.6 V -0.639 H 56 l -0.021,2.11 h -0.045 a 4.792,4.792 0 0 0 -4.403,-2.331 5.1,5.1 0 0 0 -5.239,5.343 5.1,5.1 0 0 0 5.239,5.34 4.792,4.792 0 0 0 4.406,-2.331 h 0.045 L 56,9.6 Z M 51.663,8.81 a 4.115,4.115 0 0 1 -4.231,-4.329 4.253,4.253 0 1 1 8.5,0 4.125,4.125 0 0 1 -4.273,4.329 M 69.217,9.6 V -0.639 H 68.1 v 5.231 c 0,2.592 -1.447,4.22 -3.725,4.22 -2.129,0 -3.422,-1.386 -3.422,-3.693 V -0.639 H 59.84 v 5.867 c 0,2.858 1.644,4.6 4.34,4.6 a 4.143,4.143 0 0 0 3.991,-2.286 h 0.043 L 68.238,9.6 Z"
         transform="translate(3.823,5.782)"
         fill="#479ac3"
         style="fill:#000000" />
    </g>
    <g
       id="Gruppe_13"
       data-name="Gruppe 13"
       transform="translate(182.837,114.121)"
       style="fill:#000000">
      <path
         id="Pfad_10"
         data-name="Pfad 10"
         d="M 0.752,9.6 V 2.57 L 8.886,9.6 h 1.8 L 2,2.219 10.461,-4.989 H 8.732 L 0.752,1.91 v -6.9 H -0.453 V 9.6 Z m 21.461,0 V -0.639 h -0.984 l -0.024,2.11 h -0.043 a 4.8,4.8 0 0 0 -4.405,-2.331 5.1,5.1 0 0 0 -5.239,5.343 5.1,5.1 0 0 0 5.239,5.34 4.8,4.8 0 0 0 4.406,-2.331 h 0.043 l 0.024,2.11 z M 16.886,8.81 a 4.115,4.115 0 0 1 -4.231,-4.329 4.116,4.116 0 0 1 4.232,-4.33 4.126,4.126 0 0 1 4.276,4.332 4.126,4.126 0 0 1 -4.276,4.329 m 8.988,-13.538 a 0.815,0.815 0 0 0 -0.812,0.835 0.81,0.81 0 0 0 0.812,0.812 0.81,0.81 0 0 0 0.812,-0.812 0.815,0.815 0 0 0 -0.812,-0.835 M 25.327,9.6 h 1.118 V -0.639 h -1.118 z m 7.367,-10.46 c -2.238,0 -3.77,1.277 -3.77,3.121 0,1.737 0.942,2.549 3.682,2.7 2.256,0.133 2.959,0.615 2.959,1.78 0,1.253 -1.118,2.067 -2.828,2.067 a 4.832,4.832 0 0 1 -3.813,-1.45 h -0.067 v 1.3 a 5.826,5.826 0 0 0 3.9,1.165 c 2.368,0 3.882,-1.211 3.882,-3.078 0,-1.91 -1.008,-2.746 -3.837,-2.9 -2.126,-0.109 -2.786,-0.572 -2.786,-1.6 0,-1.208 1.141,-2.089 2.7,-2.089 a 4.462,4.462 0 0 1 3.31,1.1 h 0.067 V 0.021 a 5.9,5.9 0 0 0 -3.4,-0.881 M 48.741,4.768 V 4.087 c 0,-2.988 -2.038,-4.946 -5.2,-4.946 a 5.131,5.131 0 0 0 -5.327,5.343 c 0,3.251 2.28,5.34 5.854,5.34 A 5.948,5.948 0 0 0 48.06,8.482 V 7.3 H 48 a 5.422,5.422 0 0 1 -3.925,1.517 c -2.786,0 -4.582,-1.562 -4.715,-4.044 z M 43.566,0.151 A 3.823,3.823 0 0 1 47.712,3.8 H 39.357 A 4.077,4.077 0 0 1 43.566,0.151 M 55.537,-0.86 A 3.387,3.387 0 0 0 52.16,1.317 H 52.117 L 52.094,-0.639 H 51.131 V 9.6 h 1.118 V 4.723 c 0,-2.943 1.075,-4.5 3.2,-4.5 a 2.706,2.706 0 0 1 1.6,0.484 h 0.064 v -1.17 a 3.1,3.1 0 0 0 -1.578,-0.4 m 6.532,0 C 59.834,-0.86 58.3,0.418 58.3,2.261 c 0,1.737 0.942,2.549 3.682,2.7 2.259,0.133 2.961,0.615 2.961,1.78 0,1.253 -1.118,2.067 -2.828,2.067 A 4.838,4.838 0 0 1 58.3,7.362 h -0.067 v 1.3 a 5.838,5.838 0 0 0 3.9,1.165 c 2.368,0 3.879,-1.211 3.879,-3.078 0,-1.91 -1.008,-2.746 -3.834,-2.9 -2.129,-0.109 -2.786,-0.572 -2.786,-1.6 0,-1.208 1.141,-2.089 2.7,-2.089 a 4.462,4.462 0 0 1 3.31,1.1 h 0.064 V 0.021 a 5.89,5.89 0 0 0 -3.4,-0.881 M 68.3,9.6 h 1.118 V -5.782 H 68.3 Z m 14.23,0 V -0.639 h -0.987 l -0.021,2.11 h -0.045 a 4.8,4.8 0 0 0 -4.412,-2.331 5.1,5.1 0 0 0 -5.239,5.343 5.1,5.1 0 0 0 5.239,5.34 4.8,4.8 0 0 0 4.406,-2.331 h 0.045 l 0.021,2.11 z M 77.2,8.812 a 4.116,4.116 0 0 1 -4.231,-4.329 4.254,4.254 0 1 1 8.506,0 4.126,4.126 0 0 1 -4.275,4.329 m 17.561,0.79 V -0.639 h -1.122 v 5.231 c 0,2.592 -1.447,4.22 -3.728,4.22 -2.126,0 -3.419,-1.386 -3.419,-3.693 v -5.758 h -1.118 v 5.867 c 0,2.858 1.644,4.6 4.34,4.6 a 4.143,4.143 0 0 0 3.991,-2.286 h 0.043 L 93.769,9.6 Z m 8.552,-1.362 h -0.067 a 2.061,2.061 0 0 1 -1.535,0.572 c -1.272,0 -2.017,-0.857 -2.017,-2.286 V 0.351 h 3.573 v -0.99 h -3.578 v -2.724 h -0.878 l -0.218,2.724 h -2.038 v 0.99 h 2.017 v 6.2 c 0,2.065 1.1,3.275 3,3.275 a 3.547,3.547 0 0 0 1.732,-0.4 z M 115.369,4.768 V 4.087 c 0,-2.988 -2.038,-4.946 -5.2,-4.946 a 5.131,5.131 0 0 0 -5.327,5.343 c 0,3.251 2.28,5.34 5.854,5.34 a 5.955,5.955 0 0 0 3.991,-1.341 V 7.3 h -0.067 a 5.418,5.418 0 0 1 -3.925,1.517 c -2.783,0 -4.582,-1.562 -4.712,-4.044 z m -5.178,-4.617 a 3.822,3.822 0 0 1 4.143,3.649 h -8.352 a 4.075,4.075 0 0 1 4.209,-3.649 m 11.968,-1.011 a 3.387,3.387 0 0 0 -3.376,2.176 h -0.043 l -0.021,-1.956 h -0.966 V 9.6 h 1.118 V 4.723 c 0,-2.943 1.075,-4.5 3.2,-4.5 a 2.7,2.7 0 0 1 1.6,0.484 h 0.067 v -1.17 a 3.11,3.11 0 0 0 -1.58,-0.4 m 8.419,0 a 4.187,4.187 0 0 0 -4.012,2.331 h -0.043 L 126.5,-0.639 h -0.966 V 9.6 h 1.118 V 4.393 c 0,-2.613 1.426,-4.241 3.728,-4.241 2.171,0 3.443,1.386 3.443,3.693 V 9.6 h 1.118 V 3.735 c 0,-2.836 -1.666,-4.6 -4.364,-4.6"
         transform="translate(0.453,5.782)"
         fill="#479ac3"
         style="fill:#000000" />
    </g>
    <g
       id="Gruppe_14"
       data-name="Gruppe 14"
       transform="translate(182.838,85.706)"
       style="fill:#000000">
      <path
         id="Pfad_11"
         data-name="Pfad 11"
         d="M 4.31,1.659 H 9.088 V -0.209 H -2.6 v 1.868 h 4.8 v 12.724 h 2.1 z m 14.578,8.2 V 8.824 c 0,-2.991 -2.038,-4.946 -5.194,-4.946 A 5.14,5.14 0 0 0 8.343,9.242 c 0,3.23 2.347,5.361 5.963,5.361 a 6.273,6.273 0 0 0 3.925,-1.187 v -1.888 h -0.088 a 5.363,5.363 0 0 1 -3.792,1.4 c -2.325,0 -3.858,-1.165 -4.121,-3.076 z m -5.173,-4.31 a 3.235,3.235 0 0 1 3.44,2.746 H 10.23 A 3.441,3.441 0 0 1 13.716,5.549 M 25.968,3.878 a 5.175,5.175 0 0 0 -5.524,5.364 5.187,5.187 0 0 0 5.524,5.358 5.093,5.093 0 0 0 3.355,-0.99 v -2.061 h -0.088 a 3.752,3.752 0 0 1 -3.092,1.384 3.538,3.538 0 0 1 -3.813,-3.69 3.527,3.527 0 0 1 3.813,-3.693 3.775,3.775 0 0 1 3.092,1.384 h 0.088 V 4.889 A 5.019,5.019 0 0 0 25.968,3.878 m 11.183,0 a 4.113,4.113 0 0 0 -3.443,1.5 H 33.663 V -1 H 31.8 v 15.383 h 1.863 v -5.34 c 0,-2.174 1.141,-3.494 3.049,-3.494 1.732,0 2.783,1.141 2.783,3.076 v 5.758 h 1.863 V 8.407 c 0,-2.815 -1.6,-4.529 -4.207,-4.529 m 12.189,0 A 4.032,4.032 0 0 0 45.655,5.725 H 45.612 L 45.567,4.1 h -1.578 v 10.283 h 1.865 v -5.34 c 0,-2.174 1.139,-3.494 3.047,-3.494 1.732,0 2.783,1.141 2.783,3.076 v 5.758 h 1.865 V 8.407 c 0,-2.815 -1.6,-4.529 -4.209,-4.529 m 7.76,-4.241 a 1.175,1.175 0 0 0 -1.228,1.232 1.228,1.228 0 1 0 2.456,0 1.177,1.177 0 0 0 -1.228,-1.232 m -0.921,14.746 h 1.863 V 4.1 h -1.864 z m 8.155,-10.5 c -2.389,0 -3.967,1.32 -3.967,3.275 0,1.868 0.987,2.725 3.682,2.9 1.841,0.109 2.413,0.506 2.413,1.341 0,0.945 -0.878,1.538 -2.28,1.538 A 4.773,4.773 0 0 1 60.433,11.5 h -0.088 v 2.022 a 6.125,6.125 0 0 0 3.9,1.078 c 2.5,0 4.058,-1.232 4.058,-3.209 0,-2.022 -1.032,-2.967 -3.837,-3.121 -1.711,-0.088 -2.259,-0.439 -2.259,-1.187 0,-0.923 0.854,-1.538 2.171,-1.538 a 4.333,4.333 0 0 1 3.222,1.1 h 0.088 V 4.671 A 6.361,6.361 0 0 0 64.333,3.878 m 10.917,0 a 5.175,5.175 0 0 0 -5.524,5.364 5.187,5.187 0 0 0 5.524,5.358 5.092,5.092 0 0 0 3.355,-0.99 v -2.061 h -0.088 a 3.752,3.752 0 0 1 -3.092,1.384 3.538,3.538 0 0 1 -3.813,-3.69 3.527,3.527 0 0 1 3.813,-3.693 3.775,3.775 0 0 1 3.092,1.384 h 0.088 V 4.889 A 5.019,5.019 0 0 0 75.25,3.878 m 11.183,0 a 4.113,4.113 0 0 0 -3.443,1.5 H 82.945 V -1 h -1.863 v 15.383 h 1.863 v -5.34 c 0,-2.174 1.141,-3.494 3.049,-3.494 1.732,0 2.783,1.141 2.783,3.076 v 5.758 H 90.64 V 8.407 c 0,-2.815 -1.6,-4.529 -4.207,-4.529 m 16.725,5.979 V 8.824 c 0,-2.991 -2.038,-4.946 -5.2,-4.946 A 5.14,5.14 0 0 0 92.61,9.242 c 0,3.23 2.347,5.361 5.963,5.361 a 6.273,6.273 0 0 0 3.925,-1.187 v -1.888 h -0.088 a 5.363,5.363 0 0 1 -3.792,1.4 c -2.325,0 -3.861,-1.165 -4.121,-3.076 z M 97.986,5.549 a 3.235,3.235 0 0 1 3.44,2.746 H 94.5 a 3.439,3.439 0 0 1 3.486,-2.746 m 24.6,-5.758 h -2.017 V 8.1 c 0,3.012 -1.469,4.638 -4.188,4.638 -2.719,0 -4.164,-1.626 -4.164,-4.638 v -8.309 h -2.1 v 8.44 c 0,4.175 2.147,6.372 6.226,6.372 4.1,0 6.247,-2.2 6.247,-6.372 z m 8.155,4.087 a 4.028,4.028 0 0 0 -3.682,1.847 h -0.045 L 126.967,4.1 h -1.578 v 10.283 h 1.863 v -5.34 c 0,-2.174 1.139,-3.494 3.047,-3.494 1.732,0 2.786,1.141 2.786,3.076 v 5.758 h 1.863 V 8.407 c 0,-2.815 -1.6,-4.529 -4.209,-4.529 m 7.761,-4.241 a 1.177,1.177 0 0 0 -1.231,1.232 1.228,1.228 0 1 0 2.456,0 1.175,1.175 0 0 0 -1.225,-1.232 m -0.921,14.746 h 1.863 V 4.1 h -1.863 z m 9.69,0 4.318,-10.283 h -1.929 l -3.289,8.328 h -0.045 L 143.059,4.1 h -2.017 l 4.318,10.284 z M 162.746,9.857 V 8.824 c 0,-2.991 -2.041,-4.946 -5.2,-4.946 A 5.142,5.142 0 0 0 152.2,9.242 c 0,3.23 2.347,5.361 5.965,5.361 a 6.27,6.27 0 0 0 3.922,-1.187 V 11.528 H 162 a 5.359,5.359 0 0 1 -3.792,1.4 c -2.323,0 -3.858,-1.165 -4.121,-3.076 z m -5.175,-4.308 a 3.238,3.238 0 0 1 3.443,2.746 h -6.929 a 3.441,3.441 0 0 1 3.486,-2.746 m 12.3,-1.671 a 3.325,3.325 0 0 0 -3.243,1.868 h -0.045 L 166.537,4.1 h -1.577 v 10.283 h 1.863 V 9.7 c 0,-2.682 0.942,-4.044 2.916,-4.044 a 2.743,2.743 0 0 1 1.6,0.484 h 0.088 V 4.275 a 2.923,2.923 0 0 0 -1.557,-0.4 m 6.686,0 c -2.389,0 -3.967,1.32 -3.967,3.275 0,1.868 0.987,2.725 3.682,2.9 1.841,0.109 2.411,0.506 2.411,1.341 0,0.945 -0.875,1.538 -2.278,1.538 A 4.773,4.773 0 0 1 172.655,11.5 h -0.088 v 2.022 a 6.125,6.125 0 0 0 3.9,1.078 c 2.5,0 4.058,-1.232 4.058,-3.209 0,-2.022 -1.032,-2.967 -3.837,-3.121 -1.711,-0.088 -2.259,-0.439 -2.259,-1.187 0,-0.923 0.854,-1.538 2.171,-1.538 a 4.333,4.333 0 0 1 3.222,1.1 h 0.088 V 4.671 a 6.368,6.368 0 0 0 -3.355,-0.793 m 6.971,-4.241 a 1.175,1.175 0 0 0 -1.226,1.232 1.228,1.228 0 1 0 2.456,0 1.177,1.177 0 0 0 -1.229,-1.232 m -0.921,14.746 h 1.863 V 4.1 h -1.863 z M 193.26,12.34 h -0.085 a 1.986,1.986 0 0 1 -1.514,0.593 c -1.1,0 -1.753,-0.724 -1.753,-1.956 V 5.725 h 3.31 V 4.1 h -3.31 V 1.308 h -1.535 L 188.087,4.1 h -1.929 v 1.625 h 1.884 v 5.3 c 0,2.307 1.208,3.581 3.355,3.581 a 3.988,3.988 0 0 0 1.863,-0.375 z m 12.234,2.043 V 4.1 h -1.578 l -0.066,1.647 h -0.043 a 4.563,4.563 0 0 0 -3.97,-1.868 5.067,5.067 0 0 0 -5.13,5.364 5.066,5.066 0 0 0 5.13,5.361 4.6,4.6 0 0 0 3.97,-1.847 h 0.043 l 0.066,1.626 z m -5.348,-1.45 a 3.459,3.459 0 0 1 -3.552,-3.69 3.553,3.553 0 1 1 7.1,0 3.47,3.47 0 0 1 -3.549,3.69 m -2.216,-13.208 a 1.1,1.1 0 0 0 -1.139,1.144 1.111,1.111 0 0 0 1.139,1.163 1.122,1.122 0 0 0 1.184,-1.163 1.107,1.107 0 0 0 -1.184,-1.144 m 4.342,0 a 1.107,1.107 0 0 0 -1.184,1.144 1.122,1.122 0 0 0 1.184,1.163 1.111,1.111 0 0 0 1.139,-1.163 1.1,1.1 0 0 0 -1.139,-1.144 m 12.035,12.615 h -0.088 a 1.977,1.977 0 0 1 -1.511,0.593 c -1.1,0 -1.753,-0.724 -1.753,-1.956 V 5.725 h 3.31 V 4.1 h -3.31 V 1.308 h -1.535 L 209.133,4.1 H 207.2 v 1.625 h 1.884 v 5.3 c 0,2.307 1.205,3.581 3.355,3.581 a 3.989,3.989 0 0 0 1.863,-0.375 z"
         transform="translate(2.595,0.999)"
         fill="#479ac3"
         style="fill:#000000" />
    </g>
    <g
       id="Gruppe_15"
       data-name="Gruppe 15"
       transform="translate(182.836,56.216)"
       style="fill:#000000">
      <path
         id="Pfad_12"
         data-name="Pfad 12"
         d="M 1.314,9.739 V 4.178 h 3.924 l 3.507,5.561 h 2.5 L 7.431,4 a 3.99,3.99 0 0 0 3.376,-4.35 c 0,-2.967 -1.777,-4.5 -5.2,-4.5 h -6.4 V 9.739 Z m 0,-7.429 v -5.295 h 4.209 q 3.157,0 3.156,2.637 c 0,1.78 -1.051,2.658 -3.156,2.658 z m 17.451,-3.076 a 4.113,4.113 0 0 0 -3.443,1.5 h -0.045 v -6.38 H 13.415 V 9.739 h 1.863 V 4.4 c -0.001,-2.178 1.141,-3.5 3.048,-3.5 1.732,0 2.783,1.141 2.783,3.076 v 5.763 h 1.863 V 3.76 c 0,-2.812 -1.6,-4.526 -4.207,-4.526 M 35.491,5.213 V 4.178 c 0,-2.988 -2.038,-4.944 -5.2,-4.944 A 5.139,5.139 0 0 0 24.946,4.6 c 0,3.23 2.347,5.364 5.963,5.364 A 6.29,6.29 0 0 0 34.834,8.777 V 6.881 h -0.088 a 5.358,5.358 0 0 1 -3.792,1.408 c -2.325,0 -3.861,-1.165 -4.121,-3.076 z M 30.318,0.9 a 3.233,3.233 0 0 1 3.44,2.746 H 26.833 A 3.439,3.439 0 0 1 30.318,0.9 m 8.307,-5.912 a 1.174,1.174 0 0 0 -1.225,1.234 1.175,1.175 0 0 0 1.227,1.232 1.177,1.177 0 0 0 1.229,-1.232 1.176,1.176 0 0 0 -1.229,-1.229 M 37.7,9.739 h 1.863 V -0.545 H 37.7 Z M 47.789,-0.766 A 4.028,4.028 0 0 0 44.107,1.081 H 44.064 L 44.018,-0.545 H 42.441 V 9.739 H 44.3 V 4.4 c 0,-2.178 1.145,-3.5 3.05,-3.5 1.732,0 2.786,1.141 2.786,3.076 V 9.739 H 52 V 3.76 c 0,-2.813 -1.6,-4.526 -4.211,-4.526 m 6.841,10.5 h 1.863 v -15.38 h -1.864 z m 14.887,0 V -0.545 h -1.58 L 67.872,1.1 H 67.827 A 4.552,4.552 0 0 0 63.86,-0.766 5.063,5.063 0 0 0 58.73,4.6 5.065,5.065 0 0 0 63.86,9.964 4.6,4.6 0 0 0 67.827,8.117 h 0.045 l 0.064,1.626 z M 64.166,8.284 A 3.459,3.459 0 0 1 60.613,4.6 a 3.555,3.555 0 1 1 7.1,0 3.471,3.471 0 0 1 -3.552,3.693 M 77.757,-0.766 A 4.031,4.031 0 0 0 74.075,1.081 H 74.032 L 73.986,-0.545 H 72.409 V 9.739 h 1.863 V 4.4 c -0.001,-2.178 1.14,-3.5 3.048,-3.5 1.732,0 2.78,1.146 2.78,3.081 v 5.758 h 1.863 V 3.76 c 0,-2.812 -1.6,-4.526 -4.209,-4.526 m 16.97,10.5 V -5.646 H 92.862 V 0.793 H 92.819 A 4.643,4.643 0 0 0 89.07,-0.766 5.063,5.063 0 0 0 83.94,4.6 5.065,5.065 0 0 0 89.07,9.964 4.593,4.593 0 0 0 93.037,8.117 h 0.045 l 0.067,1.626 z M 89.373,8.284 A 3.457,3.457 0 0 1 85.827,4.6 a 3.553,3.553 0 1 1 7.1,0 3.471,3.471 0 0 1 -3.552,3.693 m 7.807,-3.605 h 6.1 V 2.794 h -6.1 z m 8.812,-9.536 V 9.739 h 2.1 V 4.353 h 4.185 c 3.422,0 5.2,-1.58 5.2,-4.614 0,-3.034 -1.775,-4.592 -5.2,-4.592 z m 2.1,7.338 v -5.47 h 4.1 c 2.1,0 3.156,0.9 3.156,2.725 0,1.825 -1.05,2.74 -3.15,2.74 z m 15.893,-8.349 c -2.214,0 -3.44,1.317 -3.44,3.648 v 1.666 h -1.886 v 1.626 h 1.886 v 8.658 h 1.884 V 1.081 h 3.289 v -1.626 h -3.289 v -1.629 c 0,-1.317 0.657,-2.022 1.82,-2.022 a 3.212,3.212 0 0 1 1.666,0.463 h 0.088 v -1.758 a 4.8,4.8 0 0 0 -2.017,-0.373 m 13.067,15.6 V -0.545 h -1.578 L 135.415,1.1 h -0.045 a 4.549,4.549 0 0 0 -3.97,-1.866 5.065,5.065 0 0 0 -5.13,5.361 5.067,5.067 0 0 0 5.13,5.364 4.593,4.593 0 0 0 3.967,-1.847 h 0.045 l 0.067,1.626 z m -5.351,-1.45 a 3.457,3.457 0 0 1 -3.545,-3.686 3.553,3.553 0 1 1 7.1,0 3.471,3.471 0 0 1 -3.552,3.693 m -2.212,-13.212 a 1.093,1.093 0 0 0 -1.139,1.141 1.113,1.113 0 0 0 1.139,1.165 1.124,1.124 0 0 0 1.184,-1.165 1.105,1.105 0 0 0 -1.184,-1.141 m 4.342,0 a 1.105,1.105 0 0 0 -1.184,1.141 1.124,1.124 0 0 0 1.184,1.165 1.113,1.113 0 0 0 1.139,-1.165 1.093,1.093 0 0 0 -1.139,-1.141 m 6.114,14.658 h 1.863 V -5.646 h -1.863 z m 4.233,0 h 8.921 V 8.113 h -6.4 L 153,0.969 v -1.514 h -8.485 v 1.626 h 5.985 l -6.314,7.163 z m 12.21,-14.746 a 1.174,1.174 0 0 0 -1.227,1.229 1.175,1.175 0 0 0 1.227,1.232 1.175,1.175 0 0 0 1.227,-1.232 1.174,1.174 0 0 0 -1.227,-1.229 m -0.921,14.746 h 1.863 V -0.545 h -1.863 z m 8.155,-10.5 c -2.389,0 -3.967,1.32 -3.967,3.275 0,1.868 0.984,2.725 3.682,2.9 1.841,0.109 2.411,0.506 2.411,1.341 0,0.945 -0.875,1.538 -2.28,1.538 a 4.773,4.773 0 0 1 -3.749,-1.429 h -0.088 v 2.018 a 6.134,6.134 0 0 0 3.9,1.078 c 2.5,0 4.055,-1.232 4.055,-3.209 0,-2.022 -1.03,-2.967 -3.837,-3.121 -1.708,-0.088 -2.256,-0.439 -2.256,-1.187 0,-0.923 0.854,-1.538 2.169,-1.538 A 4.335,4.335 0 0 1 166.9,2 h 0.085 V 0.024 a 6.352,6.352 0 0 0 -3.353,-0.79 m 10.917,0 a 5.174,5.174 0 0 0 -5.527,5.366 5.188,5.188 0 0 0 5.524,5.364 5.092,5.092 0 0 0 3.355,-0.99 V 6.9 h -0.088 a 3.763,3.763 0 0 1 -3.092,1.384 3.539,3.539 0 0 1 -3.815,-3.684 3.526,3.526 0 0 1 3.816,-3.7 3.782,3.782 0 0 1 3.092,1.384 h 0.088 V 0.245 a 5.019,5.019 0 0 0 -3.355,-1.011 m 11.18,0 a 4.117,4.117 0 0 0 -3.443,1.5 h -0.043 v -6.38 h -1.862 V 9.739 h 1.862 V 4.4 c 0,-2.176 1.139,-3.494 3.047,-3.494 1.732,0 2.786,1.141 2.786,3.076 v 5.757 h 1.863 V 3.76 c 0,-2.812 -1.6,-4.526 -4.209,-4.526 m 16.728,5.979 V 4.178 c 0,-2.988 -2.041,-4.944 -5.2,-4.944 A 5.139,5.139 0 0 0 191.91,4.6 c 0,3.23 2.344,5.364 5.963,5.364 A 6.3,6.3 0 0 0 201.8,8.773 V 6.881 h -0.088 a 5.36,5.36 0 0 1 -3.794,1.408 c -2.323,0 -3.858,-1.165 -4.121,-3.076 z M 197.28,0.9 a 3.234,3.234 0 0 1 3.443,2.746 h -6.929 A 3.441,3.441 0 0 1 197.28,0.9"
         transform="translate(0.791,5.864)"
         fill="#479ac3"
         style="fill:#000000" />
    </g>
  </g>
</svg>
